<?xml version="1.0" encoding="utf-8"?>
<!-- Generator: Adobe Illustrator 19.0.0, SVG Export Plug-In . SVG Version: 6.00 Build 0)  -->
<svg version="1.1" xmlns="http://www.w3.org/2000/svg" xmlns:xlink="http://www.w3.org/1999/xlink" x="0px" y="0px"
	 viewBox="-3 -43.8 305.8 305.8" style="enable-background:new -3 -43.8 305.8 305.8;" xml:space="preserve">
<style type="text/css">
	.st0{fill:#5C6674;}
	.st1{display:none;}
	.st2{display:inline;}
	.st3{font-family:'MyriadPro-Regular';}
	.st4{font-size:12px;}
</style>
<g id="restart">
	<path class="st0" d="M149.9,82c-15.4,0-28,12.6-28,28c0,7.2,2.8,14.1,7.8,19.3c0,0-0.7,1.6-1.6,3.6c-0.9,2,0.4,3.4,2.9,3.2
		l14.5-1.5c2.5-0.3,3.3-2.1,1.8-4.1l-8.6-11.8c-1.5-2-3.3-2.3-4-0.5l-1.4,3.1c-2.2-3.3-3.5-7.2-3.5-11.3c0-11.1,9-20.1,20.1-20.1
		c11.1,0,20.1,9,20.1,20.1c0,3.5-0.9,6.9-2.6,9.9c-1.1,1.9-0.4,4.3,1.5,5.4c1.9,1.1,4.3,0.4,5.4-1.5c2.4-4.2,3.7-9,3.7-13.9
		C177.9,94.6,165.4,82,149.9,82z"/>
</g>
<g id="nyt_x5F_exporter_x5F_info" class="st1">
	<text transform="matrix(1 0 0 1 -3 261.9999)" class="st2"><tspan x="0" y="0" class="st3 st4">&lt;nyt_prefs&gt;</tspan><tspan x="0" y="14.4" class="st3 st4">  &lt;nyt_prefix&gt;&lt;/nyt_prefix&gt;</tspan><tspan x="0" y="28.8" class="st3 st4">  &lt;nyt_suffix&gt;&lt;/nyt_suffix&gt;</tspan><tspan x="0" y="43.2" class="st3 st4">  &lt;nyt_base_path&gt;~/Documents/PotTheBall&lt;/nyt_base_path&gt;</tspan><tspan x="0" y="57.6" class="st3 st4">  &lt;nyt_scaling&gt;50&lt;/nyt_scaling&gt;</tspan><tspan x="0" y="72" class="st3 st4">  &lt;nyt_transparency&gt;true&lt;/nyt_transparency&gt;</tspan><tspan x="0" y="86.4" class="st3 st4">  &lt;nyt_embedImage&gt;true&lt;/nyt_embedImage&gt;</tspan><tspan x="0" y="100.8" class="st3 st4">  &lt;nyt_embedFont&gt;true&lt;/nyt_embedFont&gt;</tspan><tspan x="0" y="115.2" class="st3 st4">  &lt;nyt_trimEdges&gt;true&lt;/nyt_trimEdges&gt;</tspan><tspan x="0" y="129.6" class="st3 st4">  &lt;nyt_innerPadding&gt;false&lt;/nyt_innerPadding&gt;</tspan><tspan x="0" y="144" class="st3 st4">  &lt;nyt_format&gt;PNG 24&lt;/nyt_format&gt;</tspan><tspan x="0" y="158.4" class="st3 st4">  &lt;nyt_artboards&gt;all&lt;/nyt_artboards&gt;</tspan><tspan x="0" y="172.8" class="st3 st4">  &lt;nyt_layers&gt;all&lt;/nyt_layers&gt;</tspan><tspan x="0" y="187.2" class="st3 st4">  &lt;nyt_exportArtboards&gt;false&lt;/nyt_exportArtboards&gt;</tspan><tspan x="0" y="201.6" class="st3 st4">  &lt;nyt_ignoreWarnings&gt;false&lt;/nyt_ignoreWarnings&gt;</tspan><tspan x="0" y="216" class="st3 st4">&lt;/nyt_prefs&gt;</tspan></text>
</g>
</svg>
