<?xml version="1.0" encoding="utf-8"?>
<!-- Generator: Adobe Illustrator 19.0.0, SVG Export Plug-In . SVG Version: 6.00 Build 0)  -->
<svg version="1.1" id="Capa_1" opacity="0.3" xmlns="http://www.w3.org/2000/svg" xmlns:xlink="http://www.w3.org/1999/xlink"
	 x="0px" y="0px" viewBox="-13 263 612 612" style="enable-background:new -13 263 612 612;" xml:space="preserve">
<style type="text/css">
	.st0{display:none;}
	.st1{display:inline;fill:#010002;}
</style>
<g>
	<g>
		<path d="M574.6,449.9c-32.3-75.2-87.1-129.9-162.9-162.3c-37.9-16.2-77.6-24.4-119.1-24.4c-41.5,0-80.9,8.2-118.8,24.4
			C98.5,319.9,43.4,374.5,11.1,449.9C-5.1,487.6-13,527.2-13,568.7c0,41.5,7.9,81.4,24.1,119.1c32.3,75.3,87.4,130.3,162.6,162.6
			c37.9,16.2,77.3,24.4,118.8,24.4s81.2-8.3,119.1-24.4c75.9-32.4,130.7-87.4,163-162.6c16.2-37.9,24.4-77.6,24.4-119.1
			C599,527.2,590.8,487.8,574.6,449.9z M525.7,703.9c-24,41.2-56.9,73.9-98.4,98c-41.2,24-86.3,36.1-134.8,36.1
			c-36.5,0-71.3-7-104.4-21.4c-33.1-14.4-61.7-33.3-85.7-57.2c-23.9-23.9-43-52.8-57.2-86C31,640.3,24.1,605.1,24.1,568.7
			c0-48.5,11.9-93.4,35.8-134.5c24-41.2,56.9-73.9,98-98C199.1,312,244,300,292.5,300c48.5,0,93.6,12.1,134.8,36.1
			c41.4,24.2,74.3,56.9,98.4,98c24.1,41.2,36.1,86,36.1,134.5C561.9,617.2,549.9,662.4,525.7,703.9z"/>
		<path d="M311.9,566V392.7c0-10.4-9-18.7-19.4-18.7c-9.7,0-18.4,8.4-18.4,18.7v176c0,0.3,0.7,1.7,0.7,2.7c-0.7,6,1,11,5,15.1
			l100.1,100c6.7,6.7,19.1,6.7,25.8,0c7.7-7.7,7.2-18.9,0-26.1L311.9,566z"/>
	</g>
</g>
<g class="st0">
	<path class="st1" d="M312.7,382.3L203.5,563.1c-6.6,11-1.6,19.9,11.2,19.9h71.8c12.9,0,19.8,9.8,15.6,22L250,753.5
		c-4.3,12.1-2,13.3,5.1,2.5l135.1-205.4c7.1-10.7,2.4-19.4-10.5-19.4H293c-12.9,0-20-9.9-16.1-22.1l40.5-124.5
		C321.5,372.3,319.3,371.3,312.7,382.3z"/>
</g>
</svg>
